<svg version="1.2" xmlns="http://www.w3.org/2000/svg" viewBox="0 0 125 38" width="125" height="38"><style>.s0{fill:#0b36a8}</style><path class="s0" d="m19 38c-10.5 0-19-8.5-19-19c0-10.5 8.5-19 19-19c10.5 0 19 8.5 19 19c0 10.5-8.5 19-19 19z" /><path fill="#ffffff" aria-label="ABHINAND"  d="m48.66 25l-0.7-1.82h-4.48l-0.67 1.82h-2.52l5.31-12.76h0.18l5.33 12.76zm-4.53-3.56h3.16l-1.31-3.42l-0.31-1.01l-0.28 1.01zm14.3-3.08q1.05 0.25 1.57 1.03q0.52 0.78 0.52 1.99q0 1.73-1.18 2.68q-1.17 0.94-3.62 0.94h-3.4v-12.55h3.34q4.23 0 4.23 3.35q0 0.79-0.37 1.5q-0.36 0.71-1.09 1.06zm-0.77-2.49q0-0.9-0.56-1.26q-0.55-0.37-1.44-0.37h-1.08v3.47h1.46q0.58 0 0.94-0.28q0.36-0.28 0.52-0.69q0.16-0.42 0.16-0.87zm-1.69 7.31q0.97 0 1.57-0.4q0.61-0.42 0.61-1.52q0-1.11-0.63-1.49q-0.62-0.39-1.66-0.39h-1.28v3.8zm13.04-10.73h2.34v12.55h-2.34v-5.33h-4.14v5.33h-2.33v-12.55h2.33v5.24h4.14zm5.31 12.55v-12.55h2.3v12.55zm11.93-12.55h2.22v12.8h-0.18l-6.01-6.86l-0.56-0.72l0.09 1.75v5.58h-2.22v-12.76h0.2l5.92 6.91l0.63 0.82l-0.09-1.72zm11.79 12.54l-0.7-1.81h-4.48l-0.67 1.81h-2.52l5.31-12.76h0.18l5.33 12.76zm-4.53-3.56h3.16l-1.31-3.42l-0.31-1.01l-0.28 1.01zm14.85-8.98h2.21v12.8h-0.18l-6.01-6.86l-0.56-0.72l0.09 1.74v5.58h-2.21v-12.76h0.19l5.93 6.91l0.63 0.82l-0.09-1.72zm8.42 0q2.75 0 4.22 1.55q1.47 1.54 1.47 4.57q0 1.98-0.67 3.42q-0.65 1.44-1.94 2.23q-1.28 0.78-3.1 0.78h-3.22v-12.55zm-0.07 10.57q1.24 0 2.01-0.61q0.76-0.61 1.08-1.59q0.33-0.99 0.33-2.19q0-1.91-0.81-3.14q-0.8-1.24-2.61-1.24h-0.85v8.77z" /><path fill="#ffffff" aria-label="A"  d="m21.29 16.64l1.33-6.26q-0.94 0.51-2 1.91q-1.06 1.38-2.14 3.54q0.83 0.17 1.52 0.37q0.71 0.21 1.29 0.44zm3.13-7.89q0.48 0 0.96 0.09q0.49 0.07 0.85 0.23l-3.61 16.93h-3.31l1.77-8.35q-0.8-0.37-1.52-0.55q-0.71-0.21-1.56-0.28q-1.31 2.85-2.16 5.8q-0.83 2.94-0.83 4.71q0 0.42 0.07 0.74q0.09 0.3 0.25 0.55q-1.75 0-2.41-0.6q-0.67-0.59-0.67-1.84q0-1.54 0.92-4.11q0.94-2.58 2.46-5.25q-1.17 0.07-1.84 0.37q-0.64 0.3-0.85 0.83q0.09 0 0.18 0.25q0.12 0.23 0.12 0.46q0 0.39-0.37 0.65q-0.37 0.25-0.92 0.25q-0.64 0-1.03-0.35q-0.39-0.36-0.39-0.98q0-1.2 1.33-2.01q1.36-0.82 3.36-0.82q0.23 0 0.53 0.02q0.3 0 0.66 0.04q2.03-3.19 4.12-4.99q2.09-1.79 3.89-1.79z" /></svg>